# xmcd
#
# Track frame offsets:
#   150
#   16848
#   38303
#   55697
#   78984
#   97488
#   112443
#   129215
#   143751
#   161087
#   176350
#   199527
#
# Disc length: 3001 seconds
#
# Revision: 0
# Processed by: cddbd v1.5.1PL0 Copyright (c) Steve Scherf et al.
# Submitted via: Media_Universe 3.0
#
DISCID=960bb70c
DTITLE=MONTGOMERY GENTRY - Carrying On
DYEAR=1900
DGENRE=Country
TTITLE0=She Couldn't Change Me
TTITLE1=My Father's Son
TTITLE2=The Fine Line
TTITLE3=Cold One Coming On
TTITLE4=While The World Goes Down The Drain
TTITLE5=Hellbent On Saving Me
TTITLE6=Carrying On
TTITLE7=Ramblin Man
TTITLE8=Black Jack Fletcher And Mississippi Sam
TTITLE9=Lucky To Be Here
TTITLE10=Too Hard To Handle - Too Free To Hold
TTITLE11=Tried And True
EXTD=
EXTT0=
EXTT1=
EXTT2=
EXTT3=
EXTT4=
EXTT5=
EXTT6=
EXTT7=
EXTT8=
EXTT9=
EXTT10=
EXTT11=
PLAYORDER=
